<?xml version="1.0" encoding="UTF-8"?>
<svg id="Layer_2" data-name="Layer 2" xmlns="http://www.w3.org/2000/svg" viewBox="0 0 608.17 217.2">
  <defs>
    <style>
      .cls-1 {
        fill: #00868f;
      }

      .cls-2 {
        fill: #f68f1e;
      }
    </style>
  </defs>
  <g id="Layer_1-2" data-name="Layer 1">
    <g>
      <g>
        <path class="cls-2" d="M278.12,169.48l-.79,5.91h6.9l-.57,4.15h-6.85l-1.08,8.14h-3.46l2.97-22.36h11.22l-.57,4.15h-7.77Z"/>
        <path class="cls-2" d="M288.43,180.25c0-.77,.06-1.57,.17-2.4l1.65-12.52h3.46l-1.66,12.43c-.08,.7-.13,1.31-.13,1.88,0,2.72,1.02,4.02,2.86,4.02,2.08,0,3.29-1.72,3.86-5.91l1.66-12.43h3.37l-1.68,12.74c-.89,6.61-3.42,10-7.6,10-3.73,0-5.98-3-5.98-7.83Z"/>
        <path class="cls-2" d="M311.55,169.48l-.64,4.85h6.9l-.53,4.02h-6.92l-.68,5.17h8.11l-.57,4.15h-11.5l2.97-22.36h11.22l-.57,4.15h-7.79Z"/>
        <path class="cls-2" d="M324.52,165.33h3.46l-2.42,18.14h7.45l-.57,4.22h-10.89l2.97-22.36Z"/>
        <path class="cls-2" d="M338.92,165.33h3.46l-2.97,22.36h-3.46l2.97-22.36Z"/>
        <path class="cls-2" d="M361.09,165.33l-2.97,22.36h-2.82l-5.54-13.99-1.87,13.99h-3.4l2.97-22.36h2.84l5.54,14.02,1.85-14.02h3.39Z"/>
        <path class="cls-2" d="M374.82,176.16h3.14l-1.23,9.2c-1.51,1.72-3.54,2.71-5.69,2.71-4.5,0-7.34-3.93-7.34-9.71,0-7.63,3.71-13.42,9.34-13.42,2.84,0,4.92,1.37,6.2,3.9l-2.46,3c-1-1.79-2.23-2.49-3.88-2.49-3.48,0-5.71,3.77-5.71,8.69,0,3.35,1.49,5.62,4.31,5.62,.87,0,1.68-.26,2.46-.8l.87-6.71Z"/>
        <path class="cls-2" d="M391.75,165.33h6.22c4.58,0,7.32,3.61,7.32,9.33,0,7.89-3.76,13.03-9.25,13.03h-7.26l2.97-22.36Zm4.39,18.11c3.57,0,5.67-3.64,5.67-8.5,0-3.32-1.42-5.37-4.22-5.37h-2.95l-1.85,13.86h3.35Z"/>
        <path class="cls-2" d="M410.86,165.33h3.46l-2.97,22.36h-3.46l2.97-22.36Z"/>
        <path class="cls-2" d="M428.03,176.16h3.14l-1.23,9.2c-1.51,1.72-3.54,2.71-5.69,2.71-4.5,0-7.34-3.93-7.34-9.71,0-7.63,3.71-13.42,9.34-13.42,2.84,0,4.92,1.37,6.2,3.9l-2.46,3c-1-1.79-2.23-2.49-3.88-2.49-3.48,0-5.71,3.77-5.71,8.69,0,3.35,1.49,5.62,4.31,5.62,.87,0,1.68-.26,2.46-.8l.87-6.71Z"/>
        <path class="cls-2" d="M437.36,165.33h3.46l-2.97,22.36h-3.46l2.97-22.36Z"/>
        <path class="cls-2" d="M448.41,169.55h-4.75l.57-4.22h12.94l-.57,4.22h-4.73l-2.42,18.14h-3.44l2.4-18.14Z"/>
        <path class="cls-2" d="M467.47,182.9h-6.92l-1.93,4.79h-3.67l9.61-22.36h3.39l3.65,22.36h-3.44l-.7-4.79Zm-.57-3.93l-1.25-8.62-3.5,8.62h4.75Z"/>
        <path class="cls-2" d="M477.71,165.33h3.46l-2.42,18.14h7.45l-.57,4.22h-10.89l2.97-22.36Z"/>
        <path class="cls-2" d="M508.33,176.16h3.14l-1.23,9.2c-1.51,1.72-3.54,2.71-5.69,2.71-4.5,0-7.34-3.93-7.34-9.71,0-7.63,3.71-13.42,9.34-13.42,2.84,0,4.92,1.37,6.2,3.9l-2.46,3c-1-1.79-2.23-2.49-3.88-2.49-3.48,0-5.71,3.77-5.71,8.69,0,3.35,1.49,5.62,4.31,5.62,.87,0,1.68-.26,2.46-.8l.87-6.71Z"/>
        <path class="cls-2" d="M525.28,180.79l2.59,6.9h-3.63l-2.33-6.26h-2.93l-.83,6.26h-3.46l2.97-22.36h6.05c3.69,0,5.81,2.56,5.81,6.93s-1.59,7.28-4.24,8.53Zm.76-8.05c0-2.17-1.02-3.19-2.78-3.19h-2.72l-1.04,7.76h2.93c2.27,0,3.61-1.6,3.61-4.57Z"/>
        <path class="cls-2" d="M532.34,178.36c0-7.63,3.71-13.42,9.19-13.42,4.52,0,7.24,3.96,7.24,9.71,0,7.63-3.71,13.41-9.19,13.41-4.52,0-7.24-3.96-7.24-9.71Zm12.94-3.42c0-3.32-1.44-5.59-4.05-5.59-3.35,0-5.41,3.99-5.41,8.72,0,3.32,1.44,5.59,4.05,5.59,3.35,0,5.41-3.99,5.41-8.72Z"/>
        <path class="cls-2" d="M576.33,165.33l-7.85,22.36h-3.67l-1.29-15.04-5.37,15.04h-3.69l-1.89-22.36h3.39l1.32,15.71,5.58-15.71h3.18l1.27,15.84,5.6-15.84h3.42Z"/>
        <path class="cls-2" d="M582.35,169.55h-4.75l.57-4.22h12.94l-.57,4.22h-4.73l-2.42,18.14h-3.44l2.4-18.14Z"/>
        <path class="cls-2" d="M608.17,165.33l-2.97,22.36h-3.44l1.21-9.1h-6.73l-1.21,9.1h-3.46l2.97-22.36h3.46l-1.17,8.78h6.73l1.17-8.78h3.44Z"/>
      </g>
      <g>
        <path class="cls-1" d="M199.26,115.8c-.12,48.65-32.77,88.95-79.12,99.19-50.35,11.13-103.38-20.98-116.32-70.93-10.14-39.17,.08-72.83,29.14-100.82,5.61-5.4,14.01-5.42,19.51-.31,5.79,5.39,6.42,13.68,.93,19.69-6.53,7.15-13.12,14.13-17.49,22.97-23.39,47.32,10.86,103.12,63.65,102.85,27.83-.15,49.29-12.94,62.57-37.39,12.95-23.84,11.88-48.11-2.18-71.36-3.52-5.83-8.48-10.84-13.11-15.92-5.68-6.24-6-14.74-.35-20.44,5.6-5.66,14.28-5.4,20.41,.38,17.97,16.94,28.67,37.61,31.88,62.09,.5,3.82,.38,7.72,.48,10.01Z"/>
        <path class="cls-1" d="M95.71,123.97c-5.75,6.12-10.75,11.22-15.47,16.57-1.98,2.24-3.67,4.85-5.02,7.53-3.42,6.8-2.84,14.99,1.17,19.06,4.2,4.27,9.34,5.77,15.12,4.34,6.46-1.6,9.2-6.67,10.52-12.57,2.73-12.25-5.09-22.42-6.32-34.94Zm-11.87,39.61c-.08,1.13-1.22,2.95-2.11,3.11-2.22,.39-5.33-4.48-5.41-9.03,.39-.37,1.24-1.86,2.28-2,2.3-.33,5.49,4.43,5.24,7.92Z"/>
        <path class="cls-2" d="M60.78,78.37c.93,.58,1.23,.88,1.59,.97,5.86,1.53,8.29,5.75,10,11.28,3.43,11.08,7.53,21.95,11.3,32.93,.35,1.03,.33,2.2,.48,3.3,.41-.04,.81-.09,1.22-.13,4.68-9.73,9.36-19.47,14.19-29.52,10.8,5.19,21.25,10.22,31.71,15.25l.34-.7c-10.44-5.02-20.88-10.04-31.67-15.23,.61-1.27,1.04-2.15,1.46-3.04,10.76-22.39,21.37-44.85,32.4-67.11,2.85-5.76,6.71-11.11,10.68-16.2,1.96-2.51,5.23-4,8.15-6.12-2.35-.87-4.86-2.07-7.5-2.72-14.19-3.48-26.54-.06-36.98,10.19-6.32,6.22-10.82,13.68-14.66,21.59-6.01,12.36-11.95,24.76-18.09,37.05-3.33,6.67-6.51,8.37-14.62,8.23Z"/>
      </g>
      <polygon class="cls-1" points="26.96 204 26.98 204.04 27 204 26.96 204"/>
      <polygon class="cls-1" points="266.27 81.17 266.27 97.69 249.71 97.69 249.71 148.38 231.71 148.38 231.71 97.69 215.8 97.69 215.8 81.17 266.27 81.17"/>
      <polygon class="cls-1" points="397.97 131.88 397.97 148.38 347.97 148.38 347.97 81.17 365.98 81.17 365.98 131.88 397.97 131.88"/>
      <polygon class="cls-1" points="461.18 131.88 461.18 148.38 411.18 148.38 411.18 81.17 429.19 81.17 429.19 131.88 461.18 131.88"/>
      <polygon class="cls-1" points="527.38 131.88 527.38 148.38 475.08 148.38 475.08 81.17 526.09 81.17 526.09 97.69 493.08 97.69 493.08 106.44 522.3 106.44 522.3 122.95 493.08 122.95 493.08 131.88 527.38 131.88"/>
      <polygon class="cls-1" points="320.09 148.38 340.78 148.38 306.08 77.82 271.39 148.38 288.87 148.38 295.49 134 306.1 131.57 298.71 127.01 306.02 111.13 320.09 148.38"/>
      <polygon class="cls-1" points="589.39 81.17 589.64 116.22 541.63 78.71 541.61 78.71 541.61 97.2 541.61 99.09 541.61 148.38 559.81 148.38 559.57 114.01 607.51 150.79 607.51 81.17 589.39 81.17"/>
      <polygon class="cls-1" points="581.93 150.93 581.75 150.79 581.75 150.93 581.93 150.93"/>
      <polygon class="cls-1" points="260.55 139.98 260.56 140.02 260.58 139.98 260.55 139.98"/>
    </g>
  </g>
</svg>