<svg width="210" height="76" viewBox="0 0 210 76" fill="none" xmlns="http://www.w3.org/2000/svg">
<path d="M68.6836 40.4691C68.6423 57.2391 57.3875 71.1309 41.4103 74.6607C24.0542 78.4973 5.77434 67.4287 1.31381 50.2105C-2.18153 36.7083 1.34139 25.1054 11.3586 15.457C13.2924 13.5956 16.188 13.5887 18.0839 15.3502C20.0797 17.2081 20.2969 20.0658 18.4045 22.1375C16.1535 24.6021 13.8819 27.0082 12.3755 30.0554C4.31277 46.367 16.119 65.6018 34.3162 65.5087C43.9094 65.457 51.3069 61.0482 55.8846 52.62C60.3486 44.4022 59.9797 36.0361 55.1331 28.0217C53.9198 26.012 52.21 24.285 50.614 22.5339C48.6561 20.3829 48.5458 17.4529 50.4934 15.488C52.4237 13.537 55.4158 13.6266 57.5289 15.619C63.7233 21.4584 67.4117 28.5835 68.5182 37.022C68.6905 38.3388 68.6492 39.6831 68.6836 40.4725V40.4691Z" fill="#00868F"/>
<path d="M32.9894 43.2852C31.0074 45.3948 29.2838 47.1528 27.6568 48.997C26.9743 49.7692 26.3917 50.6688 25.9264 51.5927C24.7475 53.9367 24.9474 56.7598 26.3297 58.1628C27.7775 59.6347 29.5493 60.1518 31.5417 59.6588C33.7685 59.1073 34.713 57.3596 35.168 55.3259C36.1091 51.1032 33.4134 47.5975 32.9894 43.2817V43.2852ZM28.8978 56.9391C28.8702 57.3286 28.4772 57.956 28.1704 58.0111C27.4052 58.1456 26.3331 56.4668 26.3055 54.8984C26.44 54.7709 26.733 54.2573 27.0915 54.209C27.8843 54.0952 28.9839 55.7361 28.8978 56.9391Z" fill="#00868F"/>
<path d="M20.9484 27.5666C21.2689 27.7666 21.3724 27.87 21.4965 27.901C23.5164 28.4284 24.3541 29.8831 24.9435 31.7893C26.1259 35.6087 27.5392 39.3557 28.8387 43.1406C28.9594 43.4956 28.9525 43.8989 29.0042 44.2781C29.1455 44.2643 29.2834 44.2471 29.4247 44.2333C31.038 40.8793 32.6512 37.5218 34.3162 34.0575C38.039 35.8465 41.6412 37.5804 45.2469 39.3143L45.3641 39.073C41.7653 37.3426 38.1666 35.6121 34.4472 33.8231C34.6574 33.3853 34.8056 33.082 34.9504 32.7752C38.6595 25.0572 42.3168 17.315 46.119 9.6418C47.1014 7.65628 48.432 5.81209 49.8005 4.05752C50.4761 3.1923 51.6033 2.67869 52.6098 1.9479C51.7998 1.64801 50.9346 1.23436 50.0245 1.0103C45.1331 -0.189289 40.876 0.989614 37.2772 4.52288C35.0986 6.66696 33.5475 9.23849 32.2238 11.9651C30.1521 16.2257 28.1045 20.5001 25.988 24.7366C24.8401 27.0358 23.744 27.6218 20.9484 27.5735V27.5666Z" fill="#F68F1E"/>
<path d="M9.29004 70.8723L9.29727 70.8868L9.30449 70.8723H9.29004Z" fill="#00868F"/>
<path d="M91.7822 28.5317V34.2263H86.0738V51.6996H79.8691V34.2263H74.3848V28.5317H91.7822Z" fill="#00868F"/>
<path d="M137.181 46.0119V51.6996H119.945V28.5317H126.154V46.0119H137.181Z" fill="#00868F"/>
<path d="M158.97 46.0119V51.6996H141.734V28.5317H147.943V46.0119H158.97Z" fill="#00868F"/>
<path d="M181.789 46.0119V51.6996H163.761V28.5317H181.344V34.2263H169.966V37.2425H180.038V42.9337H169.966V46.0119H181.789Z" fill="#00868F"/>
<path d="M108.277 55.7429H111.882L111.789 56.9218H109.018L108.783 59.8381H111.21L111.11 61.017H108.683L108.373 64.9122H107.532L108.284 55.7395L108.277 55.7429Z" fill="#F68F1E"/>
<path d="M114.109 65.1191C113.795 65.1191 113.544 64.9777 113.358 64.6951C113.172 64.4124 113.096 64.0367 113.13 63.5713L113.44 59.6658H114.233L113.947 63.168C113.93 63.43 113.968 63.6506 114.057 63.8264C114.147 64.0056 114.292 64.0987 114.495 64.1056C114.699 64.1056 114.881 64.0194 115.05 63.8471C115.219 63.6747 115.36 63.4369 115.481 63.137C115.598 62.8371 115.671 62.4958 115.702 62.1166L115.905 59.6692H116.688L116.267 64.9226H115.55L115.591 63.6782L115.626 63.8436C115.536 64.0815 115.416 64.2987 115.26 64.4986C115.105 64.6985 114.933 64.8502 114.736 64.9605C114.543 65.0708 114.333 65.126 114.109 65.126V65.1191Z" fill="#F68F1E"/>
<path d="M120.286 64.0298C120.427 64.0298 120.562 63.9953 120.696 63.9229C120.831 63.8505 120.951 63.7609 121.062 63.6506L121.348 64.5641C121.179 64.7088 120.996 64.8226 120.8 64.9053C120.603 64.988 120.407 65.0329 120.21 65.0329C119.845 65.0329 119.524 64.9294 119.248 64.7226C118.973 64.5158 118.755 64.2125 118.6 63.816C118.442 63.4196 118.366 62.937 118.366 62.3683C118.366 62.0305 118.411 61.6926 118.497 61.3548C118.583 61.017 118.711 60.7033 118.876 60.4172C119.042 60.1311 119.252 59.9002 119.504 59.7244C119.755 59.552 120.052 59.4658 120.389 59.4658C120.593 59.4658 120.786 59.5072 120.975 59.5934C121.165 59.6795 121.337 59.814 121.492 60.0001C121.651 60.1863 121.782 60.4345 121.892 60.7481C122.003 61.0618 122.082 61.4513 122.134 61.9167L119.142 63.1611L119.014 62.4372L121.568 61.3445L121.282 61.5341C121.22 61.2032 121.11 60.9343 120.944 60.7206C120.782 60.5103 120.586 60.4034 120.362 60.4034C120.11 60.4034 119.893 60.4896 119.714 60.662C119.535 60.8343 119.397 61.0618 119.3 61.341C119.204 61.6202 119.155 61.9201 119.155 62.2407C119.155 62.6475 119.207 62.9818 119.314 63.2438C119.421 63.5058 119.562 63.7023 119.734 63.8333C119.907 63.9643 120.093 64.0298 120.283 64.0298H120.286Z" fill="#F68F1E"/>
<path d="M124.491 55.0984H125.284L124.484 64.9157H123.702L124.495 55.0984H124.491Z" fill="#F68F1E"/>
<path d="M127.112 59.6659H127.905L127.467 64.9192H126.684L127.115 59.6659H127.112ZM127.163 57.8906C127.17 57.6976 127.222 57.5321 127.319 57.3977C127.415 57.2632 127.536 57.1977 127.677 57.2081C127.784 57.2081 127.884 57.2598 127.98 57.3598C128.077 57.4597 128.122 57.6183 128.115 57.8286C128.108 58.0251 128.06 58.1871 127.963 58.3249C127.867 58.4628 127.753 58.5283 127.618 58.5283C127.505 58.5283 127.401 58.4766 127.308 58.3698C127.212 58.2629 127.163 58.1043 127.163 57.8941V57.8906Z" fill="#F68F1E"/>
<path d="M130.804 59.6658L130.797 60.8447L130.738 60.693C130.89 60.3207 131.097 60.0243 131.359 59.8002C131.621 59.5762 131.921 59.4624 132.265 59.4624C132.61 59.4624 132.865 59.6072 133.055 59.8933C133.244 60.1794 133.323 60.562 133.296 61.0343L132.986 64.9157H132.193L132.472 61.441C132.493 61.1618 132.455 60.9343 132.358 60.7551C132.262 60.5793 132.1 60.4896 131.883 60.4896C131.665 60.4896 131.486 60.5758 131.314 60.7447C131.141 60.9136 131 61.148 130.89 61.441C130.78 61.734 130.704 62.0787 130.669 62.4683L130.466 64.9157H129.683L130.104 59.6623H130.811L130.804 59.6658Z" fill="#F68F1E"/>
<path d="M136.829 67.5183C136.55 67.5183 136.302 67.4735 136.091 67.3839C135.881 67.2943 135.695 67.1667 135.53 66.9978C135.368 66.8289 135.209 66.6359 135.057 66.4153L135.588 65.6155C135.712 65.8086 135.84 65.9706 135.967 66.0981C136.095 66.2257 136.24 66.3187 136.391 66.3842C136.543 66.4497 136.712 66.4808 136.891 66.4808C137.126 66.4808 137.326 66.4187 137.491 66.2912C137.653 66.1636 137.787 65.9913 137.887 65.7707C137.987 65.55 138.049 65.2915 138.074 64.9985L138.184 63.5783L138.242 63.7955C138.136 64.1574 137.953 64.4573 137.694 64.6883C137.436 64.9227 137.133 65.0364 136.784 65.0364C136.457 65.0364 136.167 64.9296 135.912 64.7124C135.657 64.4952 135.454 64.1884 135.302 63.7851C135.15 63.3818 135.075 62.9027 135.075 62.3443C135.075 62.065 135.113 61.7617 135.192 61.4308C135.271 61.0999 135.392 60.7862 135.55 60.4863C135.709 60.1864 135.916 59.9382 136.164 59.7452C136.416 59.5521 136.712 59.4521 137.06 59.4521C137.408 59.4521 137.708 59.5521 137.956 59.7555C138.208 59.9589 138.38 60.2174 138.473 60.5311L138.373 60.7724L138.577 59.6693H139.301L138.835 65.2019C138.801 65.6672 138.697 66.074 138.525 66.4256C138.349 66.7772 138.118 67.0461 137.829 67.2357C137.539 67.4253 137.205 67.5218 136.822 67.5218L136.829 67.5183ZM137.208 60.4277C136.96 60.4277 136.753 60.4932 136.584 60.6242C136.416 60.7551 136.281 60.9241 136.181 61.124C136.081 61.3274 136.005 61.5376 135.957 61.7514C135.909 61.9685 135.885 62.165 135.885 62.3408C135.885 62.689 135.933 62.9889 136.029 63.2405C136.126 63.4921 136.26 63.6921 136.44 63.8368C136.615 63.9816 136.819 64.054 137.05 64.054C137.229 64.054 137.398 64.0023 137.56 63.8954C137.722 63.7886 137.86 63.6404 137.981 63.4508C138.101 63.2612 138.194 63.044 138.263 62.7993L138.339 61.7479C138.311 61.4928 138.246 61.2653 138.139 61.0619C138.036 60.8586 137.905 60.7034 137.746 60.5931C137.588 60.4828 137.408 60.4277 137.208 60.4277Z" fill="#F68F1E"/>
<path d="M144.623 64.9156L145.374 55.7429H147.153C147.722 55.7429 148.194 55.8705 148.57 56.129C148.945 56.3875 149.242 56.7288 149.455 57.1562C149.669 57.5837 149.814 58.0663 149.893 58.604C149.973 59.1417 149.997 59.6933 149.969 60.2586C149.935 60.9928 149.824 61.6512 149.642 62.2234C149.455 62.7991 149.211 63.2851 148.907 63.6816C148.604 64.078 148.259 64.3848 147.88 64.595C147.498 64.8053 147.094 64.9122 146.667 64.9122H144.626L144.623 64.9156ZM145.533 63.7229H146.653C146.984 63.7229 147.298 63.6505 147.587 63.5023C147.88 63.3541 148.139 63.1335 148.363 62.837C148.587 62.5406 148.766 62.1717 148.904 61.7271C149.038 61.2824 149.118 60.7688 149.138 60.1862C149.166 59.6209 149.131 59.1314 149.038 58.7212C148.942 58.311 148.801 57.9732 148.608 57.7112C148.414 57.4492 148.197 57.2527 147.946 57.1286C147.694 57.0011 147.429 56.9391 147.142 56.9391H146.088L145.533 63.7264V63.7229Z" fill="#F68F1E"/>
<path d="M152.047 59.6659H152.84L152.402 64.9192H151.62L152.051 59.6659H152.047ZM152.099 57.8906C152.106 57.6976 152.158 57.5321 152.254 57.3977C152.351 57.2632 152.471 57.1977 152.613 57.2081C152.719 57.2081 152.819 57.2598 152.916 57.3598C153.012 57.4597 153.057 57.6183 153.05 57.8286C153.044 58.0251 152.995 58.1871 152.899 58.3249C152.802 58.4628 152.688 58.5283 152.554 58.5283C152.44 58.5283 152.337 58.4766 152.244 58.3698C152.147 58.2629 152.099 58.1043 152.099 57.8941V57.8906Z" fill="#F68F1E"/>
<path d="M156.264 67.5183C155.985 67.5183 155.736 67.4735 155.526 67.3839C155.316 67.2943 155.13 67.1667 154.964 66.9978C154.802 66.8289 154.644 66.6359 154.492 66.4153L155.023 65.6155C155.147 65.8086 155.274 65.9706 155.402 66.0981C155.53 66.2257 155.674 66.3187 155.826 66.3842C155.978 66.4497 156.147 66.4808 156.326 66.4808C156.56 66.4808 156.76 66.4187 156.926 66.2912C157.088 66.1636 157.222 65.9913 157.322 65.7707C157.422 65.55 157.484 65.2915 157.508 64.9985L157.618 63.5783L157.677 63.7955C157.57 64.1574 157.387 64.4573 157.129 64.6883C156.87 64.9227 156.567 65.0364 156.219 65.0364C155.891 65.0364 155.602 64.9296 155.347 64.7124C155.092 64.4952 154.888 64.1884 154.737 63.7851C154.585 63.3818 154.509 62.9027 154.509 62.3443C154.509 62.065 154.547 61.7617 154.626 61.4308C154.706 61.0999 154.826 60.7862 154.985 60.4863C155.143 60.1864 155.35 59.9382 155.598 59.7452C155.85 59.5521 156.147 59.4521 156.495 59.4521C156.843 59.4521 157.143 59.5521 157.391 59.7555C157.643 59.9589 157.815 60.2174 157.908 60.5311L157.808 60.7724L158.011 59.6693H158.735L158.27 65.2019C158.235 65.6672 158.132 66.074 157.96 66.4256C157.784 66.7772 157.553 67.0461 157.263 67.2357C156.974 67.4253 156.639 67.5218 156.257 67.5218L156.264 67.5183ZM156.643 60.4277C156.395 60.4277 156.188 60.4932 156.019 60.6242C155.85 60.7551 155.716 60.9241 155.616 61.124C155.516 61.3274 155.44 61.5376 155.392 61.7514C155.343 61.9685 155.319 62.165 155.319 62.3408C155.319 62.689 155.368 62.9889 155.464 63.2405C155.561 63.4921 155.695 63.6921 155.874 63.8368C156.05 63.9816 156.253 64.054 156.484 64.054C156.664 64.054 156.833 64.0023 156.995 63.8954C157.157 63.7886 157.294 63.6404 157.415 63.4508C157.536 63.2612 157.629 63.044 157.698 62.7993L157.774 61.7479C157.746 61.4928 157.68 61.2653 157.574 61.0619C157.47 60.8586 157.339 60.7034 157.181 60.5931C157.022 60.4828 156.843 60.4277 156.643 60.4277Z" fill="#F68F1E"/>
<path d="M160.931 59.6659H161.724L161.286 64.9192H160.503L160.934 59.6659H160.931ZM160.983 57.8906C160.989 57.6976 161.041 57.5321 161.138 57.3977C161.234 57.2632 161.355 57.1977 161.496 57.2081C161.603 57.2081 161.703 57.2598 161.8 57.3598C161.896 57.4597 161.941 57.6183 161.934 57.8286C161.927 58.0251 161.879 58.1871 161.782 58.3249C161.686 58.4628 161.572 58.5283 161.438 58.5283C161.324 58.5283 161.22 58.4766 161.127 58.3698C161.031 58.2629 160.983 58.1043 160.983 57.8941V57.8906Z" fill="#F68F1E"/>
<path d="M164.42 57.3562H165.202L165.016 59.6899H165.978L165.902 60.6275H164.94L164.595 64.9157H163.813L164.151 60.6275H163.51L163.585 59.6899H164.233L164.42 57.3562Z" fill="#F68F1E"/>
<path d="M168.776 65.0192C168.511 65.0261 168.266 64.9261 168.035 64.7158C167.804 64.5056 167.618 64.2091 167.473 63.8265C167.329 63.4473 167.26 62.9923 167.26 62.4683C167.26 62.1133 167.304 61.7582 167.391 61.4032C167.477 61.0482 167.604 60.7241 167.77 60.4277C167.935 60.1312 168.139 59.8934 168.38 59.7176C168.621 59.5418 168.897 59.4521 169.207 59.4521C169.459 59.4521 169.673 59.5073 169.848 59.6176C170.021 59.7279 170.169 59.8692 170.286 60.0416C170.403 60.214 170.496 60.4104 170.565 60.6311L170.49 60.8482L170.665 59.6693H171.382L170.962 64.9227H170.179L170.29 63.5921L170.348 63.9092C170.321 63.9851 170.262 64.0885 170.176 64.2126C170.09 64.3401 169.979 64.4677 169.848 64.5918C169.717 64.7158 169.559 64.8227 169.38 64.9089C169.2 64.9951 169 65.033 168.78 65.0226L168.776 65.0192ZM169.207 64.054C169.376 64.054 169.535 64.0023 169.683 63.9023C169.831 63.8024 169.966 63.6541 170.083 63.4577C170.2 63.2612 170.29 63.0406 170.352 62.7855L170.428 61.7341C170.407 61.479 170.345 61.255 170.245 61.055C170.145 60.8551 170.021 60.7034 169.866 60.5931C169.711 60.4828 169.535 60.4277 169.338 60.4277C169.107 60.4277 168.914 60.4897 168.752 60.6173C168.594 60.7448 168.463 60.9034 168.359 61.0999C168.259 61.2963 168.183 61.5032 168.139 61.7203C168.094 61.9375 168.073 62.1443 168.073 62.3305C168.073 62.6683 168.121 62.9682 168.218 63.2233C168.314 63.4783 168.445 63.6852 168.618 63.8334C168.79 63.9816 168.983 64.054 169.204 64.054H169.207Z" fill="#F68F1E"/>
<path d="M173.961 55.0984H174.754L173.954 64.9157H173.172L173.964 55.0984H173.961Z" fill="#F68F1E"/>
<path d="M184.578 64.3332C184.461 64.4607 184.295 64.5814 184.082 64.6952C183.868 64.8089 183.637 64.902 183.392 64.9675C183.147 65.033 182.909 65.064 182.685 65.0571C182.479 65.0571 182.261 65.0157 182.034 64.9364C181.806 64.8572 181.582 64.7434 181.358 64.5952C181.138 64.447 180.924 64.2574 180.721 64.0299C180.517 63.8024 180.341 63.53 180.19 63.2129C180.038 62.8958 179.917 62.5338 179.831 62.1202C179.745 61.71 179.704 61.2515 179.711 60.7448C179.721 60.307 179.769 59.8485 179.855 59.3763C179.938 58.904 180.066 58.4456 180.238 58.0078C180.41 57.5666 180.628 57.1771 180.889 56.8358C181.155 56.4945 181.465 56.2188 181.82 56.0119C182.175 55.8051 182.589 55.7086 183.054 55.7258C183.392 55.7362 183.73 55.8051 184.064 55.943C184.402 56.0774 184.705 56.2808 184.974 56.5531L184.602 57.67C184.395 57.4494 184.147 57.2736 183.864 57.1426C183.582 57.0116 183.302 56.9496 183.034 56.9599C182.668 56.9599 182.348 57.0392 182.072 57.1943C181.796 57.3494 181.562 57.5597 181.372 57.8217C181.182 58.0836 181.027 58.3766 180.907 58.7041C180.79 59.0316 180.703 59.366 180.645 59.7141C180.59 60.0623 180.559 60.3966 180.552 60.7172C180.552 61.1412 180.593 61.5204 180.679 61.8513C180.762 62.1857 180.883 62.4752 181.034 62.72C181.186 62.9647 181.355 63.1681 181.544 63.3301C181.734 63.4921 181.931 63.6128 182.137 63.6989C182.344 63.7851 182.548 63.8334 182.744 63.8506C182.93 63.861 183.116 63.8437 183.309 63.7989C183.502 63.7541 183.668 63.6852 183.806 63.5817L183.957 61.6548H182.744L182.837 60.4863H184.895L184.574 64.3435L184.578 64.3332Z" fill="#F68F1E"/>
<path d="M187.89 59.6659L187.831 60.9482C187.949 60.6173 188.097 60.3449 188.273 60.1312C188.449 59.9141 188.635 59.752 188.835 59.6348C189.031 59.5211 189.207 59.459 189.365 59.4521L189.238 60.6448C188.972 60.6104 188.735 60.6862 188.521 60.8655C188.307 61.0482 188.131 61.2826 187.994 61.5756C187.856 61.8686 187.773 62.1822 187.745 62.5201L187.542 64.9192H186.766L187.187 59.6659H187.887H187.89Z" fill="#F68F1E"/>
<path d="M192.389 65.0433C192.175 65.0433 191.958 64.9881 191.737 64.8778C191.517 64.7675 191.313 64.6055 191.134 64.3883C190.955 64.1712 190.81 63.9057 190.703 63.5817C190.596 63.2611 190.545 62.8854 190.545 62.4545C190.545 62.1339 190.583 61.7961 190.659 61.4445C190.734 61.0929 190.852 60.7689 191.007 60.4759C191.165 60.1794 191.369 59.9381 191.627 59.7451C191.882 59.5555 192.196 59.459 192.568 59.459C192.882 59.459 193.178 59.5624 193.458 59.7692C193.737 59.976 193.964 60.2725 194.14 60.6586C194.316 61.0446 194.406 61.5031 194.406 62.034C194.406 62.2615 194.385 62.5131 194.343 62.7889C194.302 63.0646 194.233 63.3335 194.14 63.5955C194.047 63.8575 193.923 64.0953 193.768 64.3125C193.613 64.5296 193.423 64.7054 193.196 64.8399C192.968 64.9743 192.699 65.0433 192.389 65.0433ZM192.423 64.0539C192.703 64.0539 192.934 63.954 193.106 63.7506C193.278 63.5472 193.406 63.2921 193.485 62.9819C193.564 62.6717 193.602 62.3787 193.602 62.0995C193.602 61.803 193.571 61.5514 193.506 61.3445C193.44 61.1377 193.354 60.9654 193.244 60.8309C193.134 60.6965 193.016 60.5965 192.889 60.531C192.761 60.469 192.644 60.4345 192.53 60.4345C192.251 60.4345 192.02 60.5345 191.848 60.7379C191.672 60.9412 191.544 61.1963 191.465 61.4997C191.386 61.803 191.345 62.1029 191.345 62.3993C191.345 62.7785 191.4 63.0922 191.51 63.3301C191.62 63.5714 191.758 63.7506 191.924 63.8678C192.089 63.985 192.258 64.0471 192.423 64.0471V64.0539Z" fill="#F68F1E"/>
<path d="M199.156 65.1053L198.339 61.5548L197.056 65.0949H197.005L195.86 59.6658H196.636L197.411 63.268L197.132 63.2059L198.135 60.5551L197.932 59.6658H198.614L199.355 63.1163L199.204 63.1404L200.452 59.6658H201.217L199.204 65.1087H199.152L199.156 65.1053Z" fill="#F68F1E"/>
<path d="M203.437 57.3562H204.22L204.033 59.6899H204.995L204.919 60.6275H203.958L203.613 64.9157H202.83L203.168 60.6275H202.527L202.603 59.6899H203.251L203.437 57.3562Z" fill="#F68F1E"/>
<path d="M207.46 60.6655C207.612 60.3104 207.822 60.0209 208.087 59.7968C208.353 59.5727 208.653 59.459 208.984 59.459C209.315 59.459 209.573 59.6038 209.759 59.8968C209.945 60.1898 210.025 60.5689 209.994 61.0309L209.683 64.9123H208.891L209.17 61.4238C209.187 61.1446 209.149 60.9171 209.06 60.7447C208.97 60.5724 208.822 60.4862 208.611 60.4862C208.401 60.4862 208.208 60.5724 208.029 60.7413C207.85 60.9102 207.701 61.1446 207.588 61.4376C207.474 61.7306 207.398 62.0753 207.364 62.4648L207.16 64.9123H206.378L207.171 55.095H207.946L207.474 60.9171L207.457 60.662L207.46 60.6655Z" fill="#F68F1E"/>
<path d="M110.334 51.6996H117.466L105.505 27.377L93.5469 51.6996H99.5724L101.854 46.7427L105.512 45.905L102.964 44.3332L105.484 38.8592L110.334 51.6996Z" fill="#00868F"/>
<path d="M203.165 28.5318L203.251 40.6139L186.701 27.6838H186.694V34.0575V34.709V51.6997H192.968L192.885 39.852L209.411 52.5304V28.5318H203.165Z" fill="#00868F"/>
<path d="M200.594 52.579L200.531 52.5303V52.579H200.594Z" fill="#00868F"/>
<path d="M89.8105 48.804L89.8142 48.8184L89.8214 48.804H89.8105Z" fill="#00868F"/>
</svg>
